<?xml version="1.0" encoding="UTF-8"?>
<svg id="Layer_2" data-name="Layer 2" xmlns="http://www.w3.org/2000/svg" xmlns:xlink="http://www.w3.org/1999/xlink" viewBox="0 0 236.48 236.89">
  <defs>
    <style>
      .cls-1 {
        fill: none;
      }

      .cls-2 {
        clip-path: url(#clippath-1);
      }

      .cls-3 {
        fill: #fff;
      }

      .cls-4 {
        clip-path: url(#clippath);
      }
    </style>
    <clipPath id="clippath">
      <rect class="cls-1" y="0" width="236.48" height="236.89"/>
    </clipPath>
    <clipPath id="clippath-1">
      <rect class="cls-1" x="43.43" y="107.93" width="15.99" height="64.97"/>
    </clipPath>
  </defs>
  <g id="Layer_1-2" data-name="Layer 1">
    <g class="cls-4">
      <path class="cls-3" d="M118.23,236.46C53.06,236.46,0,183.4,0,118.23S53.06,0,118.23,0s118.23,53.06,118.23,118.23-53.06,118.23-118.23,118.23ZM118.23,1.74C53.99,1.74,1.75,53.99,1.75,118.23s52.24,116.48,116.48,116.48,116.48-52.24,116.48-116.48S182.47,1.74,118.23,1.74Z"/>
    </g>
    <g class="cls-2">
      <path class="cls-3" d="M51.58,124.18c4.49,0,8.13-3.64,8.13-8.13s-3.64-8.13-8.13-8.13-8.13,3.64-8.13,8.13,3.64,8.13,8.13,8.13ZM51.58,132.31c-4.49,0-8.13,3.64-8.13,8.13s3.64,8.13,8.13,8.13,8.13-3.64,8.13-8.13-3.64-8.13-8.13-8.13ZM51.58,156.69c-4.49,0-8.13,3.64-8.13,8.13s3.64,8.13,8.13,8.13,8.13-3.64,8.13-8.13-3.64-8.13-8.13-8.13Z"/>
    </g>
  </g>
</svg>