<?xml version="1.0" encoding="UTF-8"?>
<svg id="Layer_2" data-name="Layer 2" xmlns="http://www.w3.org/2000/svg" xmlns:xlink="http://www.w3.org/1999/xlink" viewBox="0 0 18.67 114.67">
  <defs>
    <style>
      .cls-1 {
        fill: none;
      }

      .cls-2 {
        clip-path: url(#clippath-1);
      }

      .cls-3 {
        clip-path: url(#clippath-3);
      }

      .cls-4 {
        clip-path: url(#clippath-4);
      }

      .cls-5 {
        clip-path: url(#clippath-2);
      }

      .cls-6 {
        fill: #fff;
      }

      .cls-7 {
        clip-path: url(#clippath);
      }
    </style>
    <clipPath id="clippath">
      <rect class="cls-1" width="18.67" height="114.67"/>
    </clipPath>
    <clipPath id="clippath-1">
      <rect class="cls-1" x=".61" y="32.51" width="17.48" height="17.48"/>
    </clipPath>
    <clipPath id="clippath-2">
      <rect class="cls-1" x=".61" y=".97" width="17.48" height="17.48"/>
    </clipPath>
    <clipPath id="clippath-3">
      <rect class="cls-1" x=".61" y="65.28" width="17.48" height="17.48"/>
    </clipPath>
    <clipPath id="clippath-4">
      <rect class="cls-1" x=".61" y="95.94" width="17.48" height="17.48"/>
    </clipPath>
  </defs>
  <g id="Layer_1-2" data-name="Layer 1">
    <g class="cls-7">
      <g>
        <g class="cls-2">
          <path class="cls-6" d="M5.51,49.62l3.81-3.83,3.83,3.81s.08.07.11.1l.13.09s.09.05.14.08c.04.03.09.05.14.07.05.02.1.04.15.05.05.02.1.03.15.04.05.01.1.02.15.02s.1.01.16.01c.05,0,.1,0,.15-.01.06,0,.1-.01.15-.02.05-.01.1-.02.15-.04.05-.01.1-.03.15-.05.05-.02.09-.04.14-.07.04-.02.09-.05.13-.08.05-.03.08-.06.13-.09.04-.03.08-.07.11-.1l2.25-2.27s.07-.07.1-.11c.03-.04.06-.08.09-.13.03-.04.05-.09.08-.13.02-.05.05-.09.07-.15.02-.05.04-.09.05-.15.02-.05.03-.09.04-.15.01-.05.02-.1.02-.15,0-.06.01-.1.01-.16s0-.1-.01-.16c0-.05-.01-.1-.02-.15s-.02-.1-.04-.15c-.01-.05-.03-.1-.05-.15s-.04-.09-.07-.14c-.03-.05-.05-.09-.08-.14-.03-.04-.06-.08-.09-.13-.03-.04-.07-.08-.1-.11l-3.83-3.81,3.81-3.83s.07-.07.1-.11c.03-.04.06-.08.09-.12.03-.05.05-.09.08-.14.02-.04.05-.09.07-.14.02-.05.04-.1.05-.15.02-.05.03-.1.04-.15s.02-.1.02-.15c0-.05.01-.1.01-.16s0-.1-.01-.16c0-.05-.01-.1-.02-.15-.01-.05-.02-.1-.04-.15-.01-.05-.03-.09-.05-.15-.02-.05-.04-.09-.07-.14-.03-.05-.05-.09-.08-.14-.03-.04-.06-.08-.09-.12-.03-.04-.07-.08-.1-.11l-2.27-2.25s-.08-.07-.11-.1l-.13-.09s-.09-.06-.14-.08c-.04-.02-.09-.04-.14-.06-.05-.02-.1-.04-.15-.06-.05-.01-.1-.03-.15-.03-.05-.01-.1-.02-.16-.03-.05,0-.1,0-.15,0-.06,0-.1,0-.16,0-.05,0-.1.02-.15.03-.05,0-.1.02-.15.04-.05.02-.1.03-.15.05-.05.02-.09.04-.14.07-.04.02-.09.05-.13.08-.05.03-.08.06-.13.09s-.08.07-.11.1l-3.81,3.83-3.83-3.81s-.07-.07-.11-.1c-.04-.03-.08-.06-.13-.09-.04-.03-.09-.05-.13-.08l-.14-.06c-.05-.02-.1-.04-.15-.05-.05-.02-.1-.03-.15-.04-.06-.01-.1-.02-.15-.03-.06,0-.1,0-.16,0s-.1,0-.16,0c-.05,0-.1.02-.15.03-.05,0-.1.02-.15.04-.05.02-.09.03-.15.06-.05.02-.09.04-.14.06-.05.03-.09.06-.14.08-.04.03-.08.06-.13.09-.04.03-.08.06-.11.1l-2.26,2.27s-.07.07-.1.11-.06.08-.09.13c-.03.04-.05.09-.08.13-.02.05-.04.09-.06.14-.02.05-.04.1-.05.15-.02.05-.03.09-.04.15-.01.05-.02.1-.03.15,0,.05,0,.1,0,.16s0,.1,0,.16c0,.05.02.1.03.15,0,.05.02.1.04.15.02.05.03.09.06.15.02.05.04.09.06.14.03.05.06.09.08.14.03.04.06.08.09.13.03.04.06.08.1.11l3.83,3.81-3.81,3.83s-.07.08-.1.12c-.03.04-.06.08-.09.12-.03.05-.05.09-.08.14-.03.04-.05.09-.07.14s-.04.1-.05.15c-.02.05-.03.1-.04.15-.01.05-.02.1-.02.16,0,.05-.01.1-.01.16,0,.05,0,.1.01.15,0,.06.01.1.02.15.01.05.02.1.04.15.02.05.03.1.06.15.02.05.04.09.06.14.03.04.06.09.08.13.03.05.06.08.09.13.03.04.06.08.1.11l2.27,2.26s.07.07.11.1.08.06.13.09c.04.03.09.05.13.08.05.02.09.05.15.07.05.02.09.04.15.05.05.02.09.03.15.04.05.01.1.02.15.02.06,0,.1.01.16.01s.1,0,.16-.01c.05,0,.1-.01.15-.02.05-.01.1-.02.15-.04.05-.01.09-.03.15-.05.05-.02.09-.04.14-.07.05-.02.09-.05.14-.08.04-.03.08-.06.13-.09.04-.04.08-.07.11-.11Z"/>
        </g>
        <g class="cls-5">
          <path class="cls-6" d="M5.51,18.08l3.81-3.83,3.83,3.81s.08.07.11.1c.04.03.08.06.13.09.05.03.09.06.14.08.04.03.09.04.14.07.05.02.1.03.15.05.05.01.1.03.15.04.05,0,.1.02.15.02.05,0,.1,0,.16,0,.05,0,.1,0,.15,0,.06,0,.1-.02.15-.02.05-.01.1-.03.15-.04.05-.02.1-.03.15-.05.05-.03.09-.04.14-.07.04-.02.09-.05.13-.08.05-.03.08-.06.13-.09.04-.03.08-.07.11-.1l2.25-2.27s.07-.08.1-.12c.03-.04.06-.08.09-.12.03-.05.05-.09.08-.14.02-.04.05-.09.07-.14.02-.05.04-.1.05-.15.02-.05.03-.1.04-.15s.02-.1.02-.16c0-.05.01-.1.01-.16s0-.1-.01-.16c0-.05-.01-.1-.02-.15-.01-.05-.02-.1-.04-.15-.01-.05-.03-.1-.05-.15-.02-.05-.04-.09-.07-.14-.03-.04-.05-.09-.08-.13-.03-.05-.06-.09-.09-.13-.03-.04-.07-.08-.1-.11l-3.83-3.81,3.81-3.83s.07-.07.1-.11.06-.08.09-.13c.03-.04.05-.09.08-.13.02-.05.05-.09.07-.15.02-.05.04-.09.05-.15.02-.05.03-.09.04-.15.01-.05.02-.1.02-.15,0-.05.01-.1.01-.15,0-.06,0-.1-.01-.16,0-.05-.01-.1-.02-.15-.01-.05-.02-.1-.04-.15-.01-.05-.03-.1-.05-.15-.02-.05-.04-.09-.07-.14-.03-.04-.05-.09-.08-.13-.03-.05-.06-.08-.09-.13-.03-.04-.07-.08-.1-.11l-2.27-2.24s-.08-.07-.11-.1c-.04-.03-.08-.06-.13-.09-.05-.03-.09-.05-.14-.08-.04-.02-.09-.05-.14-.07-.05-.02-.1-.04-.15-.05-.05-.02-.1-.03-.15-.04-.05-.01-.1-.02-.16-.02-.05,0-.1-.01-.15-.01-.06,0-.1,0-.16.01-.05,0-.1.01-.15.02-.05.01-.1.02-.15.04-.05.01-.1.03-.15.05-.05.02-.09.04-.14.07-.04.02-.09.05-.13.08-.05.03-.08.06-.13.09-.04.03-.08.07-.11.1l-3.81,3.83-3.83-3.81s-.07-.07-.11-.1c-.04-.03-.08-.06-.13-.09-.04-.03-.09-.05-.13-.08-.05-.02-.09-.05-.14-.07-.05-.02-.1-.04-.15-.05-.05-.02-.1-.03-.15-.04-.06,0-.1-.02-.15-.02-.06,0-.1-.01-.16-.01s-.1,0-.16.01c-.05,0-.1.02-.15.02-.05.01-.1.02-.15.04-.05.01-.09.03-.15.05-.05.02-.09.04-.14.07-.05.02-.09.05-.14.08-.04.03-.08.06-.13.09-.04.03-.08.07-.11.1L.97,3.73s-.07.08-.1.11c-.03.04-.06.08-.09.13-.03.05-.05.09-.08.14-.02.04-.04.09-.06.14-.02.05-.04.1-.05.15-.02.05-.03.1-.04.15-.01.05-.02.1-.03.15,0,.05,0,.1,0,.16,0,.05,0,.1,0,.15,0,.06.02.1.03.15,0,.05.02.1.04.15.02.05.03.1.06.15.02.05.04.09.06.14.03.04.06.09.08.13.03.05.06.08.09.13.03.04.06.08.1.11l3.83,3.81-3.81,3.83s-.07.07-.1.11c-.03.04-.06.08-.09.13-.03.04-.05.09-.08.13-.03.05-.05.09-.07.15-.02.05-.04.09-.05.15-.02.05-.03.09-.04.15-.01.05-.02.1-.02.15,0,.06-.01.1-.01.16s0,.1.01.16c0,.05.01.1.02.15.01.05.02.1.04.15.02.05.03.1.06.15.02.05.04.09.06.14.03.05.06.09.08.14.03.04.06.08.09.13.03.04.06.08.1.11l2.27,2.26s.07.07.11.1c.04.03.08.06.13.09.04.03.09.05.13.08.05.02.09.04.15.06.05.03.09.04.15.06.05.01.09.03.15.03.05.01.1.02.15.03.06,0,.1,0,.16,0s.1,0,.16,0c.05,0,.1-.02.15-.03.05,0,.1-.02.15-.04.05-.02.09-.03.15-.06.05-.02.09-.04.14-.06.05-.03.09-.06.14-.08.04-.03.08-.06.13-.09.04-.04.08-.08.11-.11Z"/>
        </g>
        <g class="cls-3">
          <path class="cls-6" d="M5.51,82.39l3.81-3.83,3.83,3.81s.08.07.11.1l.13.09s.09.05.14.08c.04.03.09.04.14.06.05.02.1.04.15.06.05.01.1.03.15.03.05.01.1.02.15.03.05,0,.1,0,.16,0,.05,0,.1,0,.15,0,.06,0,.1-.02.15-.03.05,0,.1-.02.15-.04.05-.02.1-.03.15-.05.05-.03.09-.04.14-.07.04-.03.09-.05.13-.08.05-.03.08-.06.13-.09s.08-.07.11-.1l2.25-2.27s.07-.07.1-.11c.03-.04.06-.08.09-.13.03-.04.05-.09.08-.13.02-.05.05-.09.07-.14.02-.05.04-.1.05-.15.02-.05.03-.1.04-.15s.02-.1.02-.16c0-.05.01-.1.01-.16s0-.1-.01-.16c0-.05-.01-.1-.02-.15-.01-.05-.02-.1-.04-.15-.01-.05-.03-.09-.05-.15-.02-.05-.04-.09-.07-.14-.03-.04-.05-.09-.08-.14-.03-.04-.06-.08-.09-.12-.03-.04-.07-.08-.1-.11l-3.83-3.81,3.81-3.83s.07-.08.1-.11l.09-.13s.05-.09.08-.14c.02-.04.05-.09.07-.14.02-.05.04-.1.05-.15.02-.05.03-.1.04-.15.01-.05.02-.1.02-.15s.01-.1.01-.16c0-.05,0-.1-.01-.15,0-.06-.01-.1-.02-.15-.01-.05-.02-.1-.04-.15-.01-.05-.03-.1-.05-.15-.02-.05-.04-.09-.07-.14-.03-.04-.05-.09-.08-.13-.03-.05-.06-.08-.09-.13-.03-.04-.07-.08-.1-.11l-2.27-2.24s-.08-.07-.11-.1l-.13-.09s-.09-.05-.14-.08c-.04-.02-.09-.05-.14-.07-.05-.02-.1-.04-.15-.05-.05-.02-.1-.03-.15-.04-.05-.01-.1-.02-.16-.02-.05,0-.1-.01-.15-.01-.06,0-.1,0-.16.01s-.1.01-.15.02c-.05.01-.1.02-.15.04-.05.01-.1.03-.15.05-.05.02-.09.04-.14.07-.04.02-.09.05-.13.08-.05.03-.08.06-.13.09-.04.03-.08.07-.11.1l-3.81,3.83-3.83-3.81s-.07-.07-.11-.1c-.04-.03-.08-.06-.13-.09-.04-.03-.09-.05-.13-.08-.05-.02-.09-.05-.14-.07-.05-.02-.1-.04-.15-.05-.05-.02-.1-.03-.15-.04-.06-.01-.1-.02-.15-.02-.06,0-.1-.01-.16-.01s-.1,0-.16.01-.1.01-.15.02c-.05.01-.1.02-.15.04-.05.01-.09.03-.15.05-.05.02-.09.04-.14.07-.05.02-.09.05-.14.08-.04.03-.08.06-.13.09-.04.03-.08.07-.11.1l-2.26,2.27s-.07.08-.1.11c-.03.04-.06.08-.09.13-.03.05-.05.09-.08.14-.02.04-.04.09-.06.14-.02.05-.04.1-.05.15-.02.05-.03.1-.04.15-.01.05-.02.1-.03.15,0,.05,0,.1,0,.16,0,.05,0,.1,0,.15,0,.05.02.1.03.15,0,.05.02.1.04.15.02.05.03.1.06.15.02.05.04.09.06.14.03.04.06.09.08.13.03.05.06.08.09.13.03.04.06.08.1.11l3.83,3.81-3.81,3.83s-.07.07-.1.11c-.03.04-.06.08-.09.13-.03.04-.05.09-.08.13-.03.05-.05.09-.07.14-.02.05-.04.1-.05.15-.02.05-.03.09-.04.15-.01.05-.02.1-.02.16,0,.05-.01.1-.01.16s0,.1.01.16c0,.05.01.1.02.15.01.05.02.1.04.15.02.05.03.09.06.15.02.05.04.09.06.14.03.05.06.09.08.14.03.04.06.08.09.12.03.04.06.08.1.12l2.27,2.26s.07.07.11.1.08.06.13.09c.04.03.09.05.13.08.05.03.09.05.15.07.05.02.09.04.15.05.05.02.09.03.15.04.05.01.1.02.15.02.06,0,.1.01.16.01s.1,0,.16-.01c.05,0,.1-.01.15-.02.05-.01.1-.02.15-.04.05-.02.09-.03.15-.06.05-.02.09-.04.14-.06.05-.03.09-.06.14-.08.04-.03.08-.06.13-.09s.08-.07.11-.11Z"/>
        </g>
        <g class="cls-4">
          <path class="cls-6" d="M5.51,113.05l3.81-3.83,3.83,3.81s.08.07.11.1l.13.09s.09.05.14.08c.04.03.09.05.14.07.05.02.1.04.15.05.05.02.1.03.15.04.05.01.1.02.15.02.05,0,.1.01.16.01.05,0,.1,0,.15-.01.06,0,.1-.01.15-.02.05-.01.1-.02.15-.04.05-.01.1-.03.15-.05.05-.02.09-.04.14-.07.04-.02.09-.05.13-.08.05-.03.08-.06.13-.09.04-.03.08-.06.11-.1l2.25-2.27s.07-.07.1-.11c.03-.04.06-.08.09-.13.03-.04.05-.09.08-.13.02-.05.05-.09.07-.15.02-.05.04-.09.05-.15.02-.05.03-.09.04-.15.01-.05.02-.1.02-.15,0-.06.01-.1.01-.16s0-.1-.01-.16c0-.05-.01-.1-.02-.15s-.02-.1-.04-.15c-.01-.05-.03-.1-.05-.15s-.04-.09-.07-.14c-.03-.05-.05-.09-.08-.14-.03-.04-.06-.08-.09-.13-.03-.04-.07-.08-.1-.11l-3.83-3.81,3.81-3.83s.07-.08.1-.12c.03-.04.06-.08.09-.12.03-.05.05-.09.08-.14.02-.04.05-.09.07-.14.02-.05.04-.1.05-.15.02-.05.03-.1.04-.15.01-.05.02-.1.02-.15,0-.05.01-.1.01-.16s0-.1-.01-.16c0-.05-.01-.1-.02-.15-.01-.05-.02-.1-.04-.15-.01-.05-.03-.1-.05-.15-.02-.05-.04-.09-.07-.14-.03-.04-.05-.09-.08-.13-.03-.05-.06-.09-.09-.13-.03-.04-.07-.08-.1-.11l-2.27-2.25s-.08-.07-.11-.1l-.13-.09s-.09-.05-.14-.08c-.04-.02-.09-.04-.14-.06-.05-.02-.1-.04-.15-.05-.05-.02-.1-.03-.15-.04-.05-.01-.1-.02-.16-.03-.05,0-.1,0-.15,0-.06,0-.1,0-.16,0-.05,0-.1.02-.15.03-.05,0-.1.02-.15.04-.05.02-.1.03-.15.06-.05.02-.09.04-.14.06-.04.03-.09.06-.13.08-.05.03-.08.06-.13.09-.04.03-.08.06-.11.1l-3.81,3.83-3.83-3.81s-.07-.07-.11-.1c-.04-.03-.08-.06-.13-.09-.04-.03-.09-.05-.13-.08-.05-.03-.09-.05-.14-.07-.05-.02-.1-.04-.15-.05-.05-.02-.1-.03-.15-.04-.06-.01-.1-.02-.15-.02-.06,0-.1-.01-.16-.01s-.1,0-.16.01c-.05,0-.1.01-.15.02-.05.01-.1.02-.15.04-.05.02-.09.03-.15.06-.05.02-.09.04-.14.06-.05.03-.09.06-.14.08-.04.03-.08.06-.13.09-.04.03-.08.06-.11.1l-2.26,2.27s-.07.07-.1.11-.06.08-.09.13c-.03.04-.05.09-.08.13-.02.05-.04.09-.06.15-.02.05-.04.09-.05.15-.02.05-.03.09-.04.15-.01.05-.02.1-.03.15,0,.05,0,.1,0,.16s0,.1,0,.16c0,.05.02.1.03.15,0,.05.02.1.04.15s.03.1.06.15c.02.05.04.09.06.14.03.05.06.09.08.14.03.04.06.08.09.13.03.04.06.08.1.11l3.83,3.81-3.81,3.83s-.07.08-.1.12c-.03.04-.06.08-.09.12-.03.05-.05.09-.08.14-.03.04-.05.09-.07.14-.02.05-.04.1-.05.15-.02.05-.03.1-.04.15-.01.05-.02.1-.02.16,0,.05-.01.1-.01.16s0,.1.01.16c0,.05.01.1.02.15.01.05.02.1.04.15.02.05.03.1.06.15.02.05.04.09.06.14.03.04.06.09.08.13.03.05.06.09.09.13.03.04.06.08.1.11l2.27,2.26s.07.07.11.1.08.06.13.09c.04.03.09.05.13.08.05.02.09.05.15.07.05.02.09.04.15.05.05.02.09.03.15.04.05.01.1.02.15.02.06,0,.1.01.16.01s.1,0,.16-.01c.05,0,.1-.01.15-.02.05-.01.1-.02.15-.04.05-.01.09-.03.15-.05.05-.02.09-.04.14-.07.05-.02.09-.05.14-.08.04-.03.08-.06.13-.09.04-.04.08-.07.11-.11Z"/>
        </g>
      </g>
    </g>
  </g>
</svg>