<?xml version="1.0" encoding="UTF-8"?>
<svg id="Layer_2" data-name="Layer 2" xmlns="http://www.w3.org/2000/svg" xmlns:xlink="http://www.w3.org/1999/xlink" viewBox="0 0 54.67 46.67">
  <defs>
    <style>
      .cls-1 {
        fill: none;
      }

      .cls-2 {
        clip-path: url(#clippath-1);
      }

      .cls-3 {
        clip-path: url(#clippath-3);
      }

      .cls-4 {
        clip-path: url(#clippath-4);
      }

      .cls-5 {
        clip-path: url(#clippath-2);
      }

      .cls-6 {
        fill: #fff;
      }

      .cls-7 {
        clip-path: url(#clippath);
      }
    </style>
    <clipPath id="clippath">
      <rect class="cls-1" width="54.67" height="46.67"/>
    </clipPath>
    <clipPath id="clippath-1">
      <rect class="cls-1" x=".67" y="36.86" width="53.66" height="8.96"/>
    </clipPath>
    <clipPath id="clippath-2">
      <rect class="cls-1" x=".67" y="25.18" width="53.66" height="8.96"/>
    </clipPath>
    <clipPath id="clippath-3">
      <rect class="cls-1" x=".67" y="13.02" width="53.66" height="8.96"/>
    </clipPath>
    <clipPath id="clippath-4">
      <rect class="cls-1" x=".67" y=".66" width="53.66" height="8.96"/>
    </clipPath>
  </defs>
  <g id="Layer_1-2" data-name="Layer 1">
    <g class="cls-7">
      <g>
        <g class="cls-2">
          <path class="cls-6" d="M1.77,36.78c.23,0,.44.07.63.22l7.94,6.48,7.95-6.48c.36-.3.89-.3,1.26,0l7.94,6.48,7.94-6.48c.37-.3.9-.3,1.26,0l7.94,6.48,7.94-6.48c.43-.34,1.06-.28,1.4.14.34.43.28,1.05-.14,1.4l-8.57,6.99c-.36.3-.89.3-1.26,0l-7.94-6.48-7.94,6.48c-.36.3-.89.3-1.26,0l-7.95-6.48-7.94,6.48c-.36.3-.89.3-1.26,0l-8.57-6.99c-.43-.34-.48-.97-.14-1.4.19-.24.48-.36.76-.36Z"/>
        </g>
        <g class="cls-5">
          <path class="cls-6" d="M1.77,25.09c.23,0,.44.08.63.23l7.94,6.48,7.95-6.48c.36-.3.89-.3,1.26,0l7.94,6.48,7.94-6.48c.37-.3.9-.3,1.26,0l7.94,6.48,7.94-6.48c.43-.34,1.06-.28,1.4.14.34.43.28,1.05-.14,1.4l-8.57,6.98c-.36.3-.89.3-1.26,0l-7.94-6.48-7.94,6.48c-.36.3-.89.3-1.26,0l-7.95-6.48-7.94,6.48c-.36.3-.89.3-1.26,0L1.15,26.85c-.43-.34-.48-.97-.14-1.4.19-.24.48-.37.76-.37Z"/>
        </g>
        <g class="cls-3">
          <path class="cls-6" d="M1.77,12.94c.23,0,.44.07.63.22l7.94,6.48,7.95-6.48c.36-.3.89-.3,1.26,0l7.94,6.48,7.94-6.48c.37-.3.9-.3,1.26,0l7.94,6.48,7.94-6.48c.43-.34,1.06-.28,1.4.14.34.43.28,1.05-.14,1.4l-8.57,6.99c-.36.3-.89.3-1.26,0l-7.94-6.48-7.94,6.48c-.36.3-.89.3-1.26,0l-7.95-6.48-7.94,6.48c-.36.3-.89.3-1.26,0L1.15,14.7c-.43-.34-.48-.97-.14-1.4.19-.24.48-.36.76-.36Z"/>
        </g>
        <g class="cls-4">
          <path class="cls-6" d="M1.77.57c.23,0,.44.08.63.23l7.94,6.48L18.28.8c.36-.3.89-.3,1.26,0l7.94,6.48,7.94-6.48c.37-.3.9-.3,1.26,0l7.94,6.48,7.94-6.48c.43-.34,1.06-.28,1.4.14.34.43.28,1.06-.14,1.4l-8.57,6.98c-.36.3-.89.3-1.26,0l-7.94-6.48-7.94,6.48c-.36.3-.89.3-1.26,0l-7.95-6.48-7.94,6.48c-.36.3-.89.3-1.26,0L1.15,2.34c-.43-.34-.48-.97-.14-1.4.19-.23.48-.36.76-.36Z"/>
        </g>
      </g>
    </g>
  </g>
</svg>