<?xml version="1.0" encoding="UTF-8"?>
<svg id="Layer_2" data-name="Layer 2" xmlns="http://www.w3.org/2000/svg" xmlns:xlink="http://www.w3.org/1999/xlink" viewBox="0 0 58.9 9.37">
  <defs>
    <style>
      .cls-1 {
        fill: none;
      }

      .cls-2 {
        fill: #fff;
      }

      .cls-3 {
        clip-path: url(#clippath);
      }
    </style>
    <clipPath id="clippath">
      <rect class="cls-1" width="58.9" height="8.98"/>
    </clipPath>
  </defs>
  <g id="Layer_1-2" data-name="Layer 1">
    <g class="cls-3">
      <path class="cls-2" d="M54.13,4.15c-.94,1.8-1.58,2.89-2.63,2.89s-1.7-1.09-2.64-2.89C47.91,2.31,46.71,0,44.17,0s-3.73,2.3-4.69,4.15c-.94,1.8-1.58,2.89-2.64,2.89s-1.69-1.09-2.63-2.89C33.24,2.31,32.05,0,29.51,0s-3.73,2.3-4.7,4.15c-.93,1.8-1.58,2.89-2.63,2.89s-1.69-1.09-2.63-2.89C18.59,2.31,17.4,0,14.85,0s-3.73,2.3-4.7,4.15c-.94,1.8-1.58,2.89-2.63,2.89s-1.69-1.09-2.63-2.89C3.93,2.31,2.73,0,.2,0v2.33c1.05,0,1.69,1.09,2.63,2.89.96,1.85,2.16,4.15,4.7,4.15s3.73-2.3,4.7-4.14c.94-1.8,1.58-2.9,2.63-2.9s1.7,1.09,2.63,2.89c.96,1.85,2.16,4.15,4.7,4.15s3.73-2.3,4.7-4.14c.94-1.8,1.58-2.9,2.63-2.9s1.7,1.09,2.64,2.89c.96,1.85,2.16,4.15,4.69,4.15s3.73-2.3,4.7-4.14c.94-1.8,1.58-2.9,2.63-2.9s1.7,1.09,2.64,2.9c.96,1.84,2.16,4.14,4.7,4.14s3.73-2.3,4.7-4.14c.93-1.8,1.58-2.9,2.63-2.9V0c-2.54,0-3.73,2.3-4.7,4.15Z"/>
    </g>
  </g>
</svg>