<svg width="100" height="12" viewBox="0 0 100 12" fill="none" xmlns="http://www.w3.org/2000/svg">
<mask id="mask0_170_1675" style="mask-type:luminance" maskUnits="userSpaceOnUse" x="0" y="0" width="100" height="12">
<path d="M100 0H0V11.5005H100V0Z" fill="white"/>
</mask>
<g mask="url(#mask0_170_1675)">
<path d="M91.9018 5.31483C90.3059 7.62006 89.2193 9.01601 87.4366 9.01601C85.6539 9.01601 84.5504 7.62006 82.9544 5.31483C81.3415 2.95838 79.3042 0 74.9918 0C70.6794 0 68.659 2.94557 67.0291 5.31483C65.4332 7.62006 64.3466 9.01601 62.547 9.01601C60.7473 9.01601 59.6777 7.62006 58.0818 5.31483C56.4349 2.95838 54.4145 0 50.1022 0C45.7898 0 43.7694 2.94557 42.1225 5.31483C40.5436 7.62006 39.44 9.01601 37.6573 9.01601C35.8746 9.01601 34.7881 7.62006 33.1921 5.31483C31.5623 2.95838 29.5419 0 25.2125 0C20.8831 0 18.8797 2.94557 17.2329 5.31483C15.637 7.62006 14.5504 9.01601 12.7677 9.01601C10.985 9.01601 9.89842 7.62006 8.30249 5.31483C6.67261 2.95838 4.63526 0 0.339844 0V2.98399C2.12253 2.98399 3.20911 4.37994 4.80504 6.68517C6.43492 9.05443 8.47227 12 12.7847 12C17.0971 12 19.1174 9.05443 20.7643 6.69797C22.3602 4.39274 23.4468 2.98399 25.2295 2.98399C27.0122 2.98399 28.1157 4.37994 29.6947 6.68517C31.3246 9.05443 33.3619 12 37.6743 12C41.9867 12 44.0071 9.05443 45.6539 6.69797C47.2499 4.39274 48.3364 2.98399 50.1191 2.98399C51.9018 2.98399 53.0054 4.37994 54.6013 6.68517C56.2312 9.05443 58.2685 12 62.5639 12C66.8594 12 68.8967 9.05443 70.5436 6.69797C72.1395 4.39274 73.2261 2.98399 75.0088 2.98399C76.7915 2.98399 77.895 4.37994 79.4909 6.69797C81.1208 9.05443 83.1582 12 87.4706 12C91.783 12 93.8033 9.05443 95.4502 6.69797C97.0292 4.39274 98.1327 2.98399 99.9154 2.98399V0C95.603 0 93.5826 2.94557 91.9358 5.31483H91.9018Z" fill="#384A72"/>
</g>
</svg>
