<?xml version="1.0" encoding="UTF-8"?>
<svg id="Layer_2" data-name="Layer 2" xmlns="http://www.w3.org/2000/svg" xmlns:xlink="http://www.w3.org/1999/xlink" viewBox="0 0 56 20">
  <defs>
    <style>
      .cls-1 {
        fill: none;
      }

      .cls-2 {
        clip-path: url(#clippath-1);
      }

      .cls-3 {
        clip-path: url(#clippath-2);
      }

      .cls-4 {
        fill: #fff;
      }

      .cls-5 {
        clip-path: url(#clippath);
      }
    </style>
    <clipPath id="clippath">
      <rect class="cls-1" width="56" height="20"/>
    </clipPath>
    <clipPath id="clippath-1">
      <rect class="cls-1" x="34.38" y="1.52" width="21.12" height="17.4"/>
    </clipPath>
    <clipPath id="clippath-2">
      <rect class="cls-1" x=".9" y=".91" width="21.12" height="17.48"/>
    </clipPath>
  </defs>
  <g id="Layer_1-2" data-name="Layer 1">
    <g class="cls-5">
      <g>
        <g class="cls-2">
          <path class="cls-4" d="M34.38,16.94c0-.96.83-1.74,1.85-1.74s1.85.79,1.85,1.74-.83,1.74-1.85,1.74-1.85-.77-1.85-1.74ZM34.38,3.26c0-.96.83-1.74,1.85-1.74s1.86.79,1.86,1.74-.83,1.74-1.85,1.74-1.86-.78-1.86-1.74ZM51.52,16.94c0-.96.84-1.74,1.85-1.74s1.85.79,1.85,1.74-.84,1.74-1.85,1.74-1.85-.77-1.85-1.74ZM51.52,3.26c0-.96.84-1.74,1.85-1.74s1.85.79,1.85,1.74-.84,1.74-1.85,1.74c-1.02.01-1.85-.78-1.85-1.74Z"/>
        </g>
        <g class="cls-3">
          <path class="cls-4" d="M.9,16.34c0-.96.84-1.74,1.85-1.74s1.85.79,1.85,1.74-.83,1.74-1.85,1.74-1.85-.77-1.85-1.74ZM.9,2.66c0-.96.84-1.74,1.85-1.74s1.86.79,1.86,1.74-.84,1.74-1.85,1.74-1.86-.78-1.86-1.74ZM18.04,16.34c0-.96.83-1.74,1.85-1.74s1.85.79,1.85,1.74-.83,1.74-1.85,1.74-1.85-.77-1.85-1.74ZM18.04,2.66c0-.96.83-1.74,1.85-1.74s1.85.79,1.85,1.74-.83,1.74-1.85,1.74c-1.02.01-1.85-.78-1.85-1.74Z"/>
        </g>
      </g>
    </g>
  </g>
</svg>