<svg width="148" height="139" viewBox="0 0 148 139" fill="none" xmlns="http://www.w3.org/2000/svg">
<mask id="mask0_170_1817" style="mask-type:luminance" maskUnits="userSpaceOnUse" x="0" y="0" width="148" height="139">
<path d="M148 0H0V139H148V0Z" fill="white"/>
</mask>
<g mask="url(#mask0_170_1817)">
<path d="M118.635 1.31551C121.014 3.02683 121.099 5.41501 121.796 7.59886C122.883 11.0343 123.852 14.4824 126.418 17.5475C130.004 21.8258 135.187 23.8564 141.798 23.9841C143.905 24.0224 145.91 24.2778 146.93 25.9636C147.882 27.5217 147.287 29.1181 145.281 29.9099C134.371 34.2392 126.18 37.0361 122.629 47.0486C122.085 48.6067 120.878 49.8582 118.635 49.8838C116.443 49.9093 115.032 48.811 114.437 47.2274C113.843 45.6438 113.197 44.0729 112.721 42.4638C111.599 38.6069 108.354 35.2737 103.935 33.1665C101.624 32.0554 85.7348 31.072 87.927 27.2407C90.1532 23.32 97.9704 23.933 102.287 22.0046C108.524 19.2205 111.616 14.4441 112.857 9.28464C113.163 7.98199 114.845 -1.39195 118.635 1.34105V1.31551ZM84.2393 67.3546C80.3987 65.9881 76.1672 65.0941 72.7004 63.3317C63.6427 58.7213 57.7628 52.1698 54.7888 44.2901C51.577 35.8484 50.8802 27.0747 49.7077 18.3648C49.4867 16.7046 47.7704 15.1849 45.7651 15.1976C43.5219 15.2232 43.284 16.7046 42.9441 17.8795C37.642 36.6785 34.736 57.5464 7.57974 65.5155C6.06728 65.9497 4.58881 66.6777 3.45022 67.5333C-1.46102 71.1603 6.20324 72.3863 9.07521 73.1526C18.8127 75.7579 25.9332 78.989 30.5725 86.1663C36.0615 94.6973 37.3191 103.944 37.8969 113.266C38.0158 115.118 38.5427 116.983 39.2224 118.771C39.8852 120.546 41.9924 121.465 44.4735 121.44C46.8017 121.414 48.1272 120.418 48.705 118.835C49.6907 116.089 50.8632 113.369 51.492 110.572C55.3326 93.5735 65.6819 82.3733 84.8851 73.1654C85.9727 72.6418 86.7204 71.7223 87.1452 71.3647C87.1962 69.117 86.4315 68.108 84.2563 67.3162L84.2393 67.3546ZM129.29 113.484C121.762 112.219 117.921 108.171 115.899 103.126C114.539 99.7291 114.268 96.0894 113.639 92.5518C113.435 91.3769 113.588 90.202 111.566 89.921C109.628 89.6656 107.98 90.4063 107.317 91.8877C106.909 92.7945 106.603 93.7523 106.314 94.6973C103.425 104.122 96.22 110.457 83.4576 112.909C81.5033 113.292 80.3817 114.378 80.3307 115.91C80.2797 117.302 82.0641 118.618 84.1883 118.72C99.3809 119.422 101.641 125.757 104.292 137.838C104.462 138.655 106.399 139.281 107.623 139.409C109.186 139.575 110.121 138.63 110.41 137.391C112.364 129 121.286 122.449 131.414 119.333C136.19 117.864 133.267 114.16 129.29 113.496V113.484Z" fill="#1D204F"/>
</g>
</svg>
