<?xml version="1.0" encoding="UTF-8"?>
<svg id="Layer_2" data-name="Layer 2" xmlns="http://www.w3.org/2000/svg" xmlns:xlink="http://www.w3.org/1999/xlink" viewBox="0 0 55.33 111.88">
  <defs>
    <style>
      .cls-1 {
        fill: none;
      }

      .cls-2 {
        clip-path: url(#clippath-11);
      }

      .cls-3 {
        clip-path: url(#clippath-10);
      }

      .cls-4 {
        clip-path: url(#clippath-12);
      }

      .cls-5 {
        clip-path: url(#clippath-1);
      }

      .cls-6 {
        clip-path: url(#clippath-3);
      }

      .cls-7 {
        clip-path: url(#clippath-4);
      }

      .cls-8 {
        clip-path: url(#clippath-2);
      }

      .cls-9 {
        clip-path: url(#clippath-7);
      }

      .cls-10 {
        clip-path: url(#clippath-6);
      }

      .cls-11 {
        clip-path: url(#clippath-9);
      }

      .cls-12 {
        clip-path: url(#clippath-8);
      }

      .cls-13 {
        clip-path: url(#clippath-5);
      }

      .cls-14 {
        fill: #fff;
      }

      .cls-15 {
        clip-path: url(#clippath);
      }
    </style>
    <clipPath id="clippath">
      <rect class="cls-1" x="44.11" width="10.86" height="10.67"/>
    </clipPath>
    <clipPath id="clippath-1">
      <rect class="cls-1" x="44.11" y="20" width="10.86" height="10.67"/>
    </clipPath>
    <clipPath id="clippath-2">
      <rect class="cls-1" x="44.11" y="40" width="10.86" height="12"/>
    </clipPath>
    <clipPath id="clippath-3">
      <rect class="cls-1" x="44.11" y="60" width="10.86" height="12"/>
    </clipPath>
    <clipPath id="clippath-4">
      <rect class="cls-1" x="44.11" y="80" width="10.86" height="12"/>
    </clipPath>
    <clipPath id="clippath-5">
      <rect class="cls-1" x="44.11" y="101.33" width="10.86" height="10.52"/>
    </clipPath>
    <clipPath id="clippath-6">
      <rect class="cls-1" x="21.44" y="101.33" width="12" height="10.52"/>
    </clipPath>
    <clipPath id="clippath-7">
      <rect class="cls-1" width="10.78" height="10.67"/>
    </clipPath>
    <clipPath id="clippath-8">
      <rect class="cls-1" y="20" width="10.78" height="10.67"/>
    </clipPath>
    <clipPath id="clippath-9">
      <rect class="cls-1" y="40" width="10.78" height="12"/>
    </clipPath>
    <clipPath id="clippath-10">
      <rect class="cls-1" y="60" width="10.78" height="12"/>
    </clipPath>
    <clipPath id="clippath-11">
      <rect class="cls-1" y="80" width="10.78" height="12"/>
    </clipPath>
    <clipPath id="clippath-12">
      <rect class="cls-1" y="101.33" width="10.78" height="10.52"/>
    </clipPath>
  </defs>
  <g id="Layer_1-2" data-name="Layer 1">
    <g class="cls-15">
      <path class="cls-14" d="M50.16,10.35c-2.84,0-5.18-2.31-5.18-5.17C45.01,2.31,47.32,0,50.16,0s5.17,2.31,5.17,5.18-2.31,5.17-5.17,5.17Z"/>
    </g>
    <g class="cls-5">
      <path class="cls-14" d="M50.16,30.66c-2.84,0-5.18-2.31-5.18-5.18s2.31-5.17,5.18-5.17,5.17,2.31,5.17,5.17-2.31,5.18-5.17,5.18Z"/>
    </g>
    <g class="cls-8">
      <path class="cls-14" d="M50.16,50.96c-2.84,0-5.18-2.31-5.18-5.18s2.31-5.17,5.18-5.17,5.17,2.31,5.17,5.17-2.31,5.18-5.17,5.18Z"/>
    </g>
    <g class="cls-6">
      <path class="cls-14" d="M50.16,71.26c-2.84,0-5.18-2.31-5.18-5.17s2.31-5.18,5.18-5.18,5.17,2.31,5.17,5.18-2.31,5.17-5.17,5.17Z"/>
    </g>
    <g class="cls-7">
      <path class="cls-14" d="M50.16,91.58c-2.84,0-5.18-2.31-5.18-5.18s2.31-5.17,5.18-5.17,5.17,2.31,5.17,5.17-2.31,5.18-5.17,5.18Z"/>
    </g>
    <g class="cls-13">
      <path class="cls-14" d="M50.16,111.88c-2.84,0-5.18-2.31-5.18-5.17s2.31-5.18,5.18-5.18,5.17,2.31,5.17,5.18-2.31,5.17-5.17,5.17Z"/>
    </g>
    <path class="cls-14" d="M27.67,10.35c-2.84,0-5.17-2.31-5.17-5.17S24.82,0,27.67,0s5.18,2.31,5.18,5.18-2.31,5.17-5.18,5.17Z"/>
    <path class="cls-14" d="M27.67,30.66c-2.84,0-5.17-2.31-5.17-5.18s2.31-5.17,5.17-5.17,5.18,2.31,5.18,5.17-2.31,5.18-5.18,5.18Z"/>
    <path class="cls-14" d="M27.67,50.96c-2.84,0-5.17-2.31-5.17-5.18s2.31-5.17,5.17-5.17,5.18,2.31,5.18,5.17-2.31,5.18-5.18,5.18Z"/>
    <path class="cls-14" d="M27.67,71.26c-2.84,0-5.17-2.31-5.17-5.17s2.31-5.18,5.17-5.18,5.18,2.31,5.18,5.18-2.31,5.17-5.18,5.17Z"/>
    <path class="cls-14" d="M27.67,91.58c-2.84,0-5.17-2.31-5.17-5.18s2.31-5.17,5.17-5.17,5.18,2.31,5.18,5.17-2.31,5.18-5.18,5.18Z"/>
    <g class="cls-10">
      <path class="cls-14" d="M27.67,111.88c-2.84,0-5.17-2.31-5.17-5.17s2.31-5.18,5.17-5.18,5.18,2.31,5.18,5.18-2.31,5.17-5.18,5.17Z"/>
    </g>
    <g class="cls-9">
      <path class="cls-14" d="M5.18,10.35C2.31,10.35,0,8.03,0,5.18S2.31,0,5.18,0s5.17,2.31,5.17,5.18-2.33,5.17-5.17,5.17Z"/>
    </g>
    <g class="cls-12">
      <path class="cls-14" d="M5.18,30.66C2.31,30.66,0,28.35,0,25.48s2.31-5.17,5.18-5.17,5.17,2.31,5.17,5.17-2.33,5.18-5.17,5.18Z"/>
    </g>
    <g class="cls-11">
      <path class="cls-14" d="M5.18,50.96C2.31,50.96,0,48.65,0,45.78s2.31-5.17,5.18-5.17,5.17,2.31,5.17,5.17-2.33,5.18-5.17,5.18Z"/>
    </g>
    <g class="cls-3">
      <path class="cls-14" d="M5.18,71.26C2.31,71.26,0,68.95,0,66.1s2.31-5.17,5.18-5.17,5.17,2.31,5.17,5.17-2.33,5.15-5.17,5.15Z"/>
    </g>
    <g class="cls-2">
      <path class="cls-14" d="M5.18,91.58C2.31,91.58,0,89.25,0,86.41s2.31-5.17,5.18-5.17,5.17,2.31,5.17,5.17-2.33,5.18-5.17,5.18Z"/>
    </g>
    <g class="cls-4">
      <path class="cls-14" d="M5.18,111.88C2.31,111.88,0,109.57,0,106.71s2.31-5.18,5.18-5.18,5.17,2.31,5.17,5.18-2.33,5.17-5.17,5.17Z"/>
    </g>
  </g>
</svg>