<?xml version="1.0" encoding="UTF-8"?>
<svg id="Layer_2" data-name="Layer 2" xmlns="http://www.w3.org/2000/svg" xmlns:xlink="http://www.w3.org/1999/xlink" viewBox="0 0 87.09 108.84">
  <defs>
    <style>
      .cls-1 {
        fill: none;
      }

      .cls-2 {
        fill: #fff;
      }

      .cls-3 {
        clip-path: url(#clippath);
      }
    </style>
    <clipPath id="clippath">
      <rect class="cls-1" width="87.09" height="108.84"/>
    </clipPath>
  </defs>
  <g id="Layer_1-2" data-name="Layer 1">
    <g class="cls-3">
      <path class="cls-2" d="M69.81,1.03c1.4,1.34,1.45,3.21,1.86,4.92.64,2.69,1.21,5.39,2.72,7.79,2.11,3.35,5.16,4.94,9.05,5.04,1.24.03,2.42.23,3.02,1.55.56,1.22.21,2.47-.97,3.09-6.42,3.39-11.24,5.58-13.33,13.42-.32,1.22-1.03,2.2-2.35,2.22-1.29.02-2.12-.84-2.47-2.08-.35-1.24-.73-2.47-1.01-3.73-.66-3.02-2.57-5.63-5.17-7.28-1.36-.87-10.71-1.64-9.42-4.64,1.31-3.07,5.91-2.59,8.45-4.1,3.67-2.18,5.49-5.92,6.22-9.96.18-1.02,1.17-8.36,3.4-6.22ZM49.57,52.74c-2.26-1.07-4.75-1.77-6.79-3.15-5.33-3.61-8.79-8.74-10.54-14.91-1.89-6.61-2.3-13.48-2.99-20.3-.13-1.3-1.14-2.49-2.32-2.48-1.32.02-1.46,1.18-1.66,2.1-3.12,14.72-4.83,31.06-20.81,37.3-.89.34-1.76.91-2.43,1.58-2.89,2.84,1.62,3.8,3.31,4.4,5.73,2.04,9.92,4.57,12.65,10.19,3.23,6.68,3.97,13.92,4.31,21.22.07,1.45.38,2.91.78,4.31.39,1.39,1.63,2.11,3.09,2.09,1.37-.02,2.15-.8,2.49-2.04.58-2.15,1.27-4.28,1.64-6.47,2.26-13.31,8.35-22.08,19.65-29.29.64-.41,1.08-1.13,1.33-1.41.03-1.76-.42-2.55-1.7-3.17ZM76.08,88.86c-4.43-.99-6.69-4.16-7.88-8.11-.8-2.66-.96-5.51-1.33-8.28-.12-.92-.03-1.84-1.22-2.06-1.14-.2-2.11.38-2.5,1.54-.24.71-.42,1.46-.59,2.2-1.7,7.38-5.94,12.34-13.45,14.26-1.15.3-1.81,1.15-1.84,2.35-.03,1.09,1.02,2.12,2.27,2.2,8.94.55,10.27,5.51,11.83,14.97.1.64,1.24,1.13,1.96,1.23.92.13,1.47-.61,1.64-1.58,1.15-6.57,6.4-11.7,12.36-14.14,2.81-1.15,1.09-4.05-1.25-4.57Z"/>
    </g>
  </g>
</svg>