<?xml version="1.0" encoding="UTF-8"?>
<svg id="Layer_2" data-name="Layer 2" xmlns="http://www.w3.org/2000/svg" xmlns:xlink="http://www.w3.org/1999/xlink" viewBox="0 0 628.86 783.72">
  <defs>
    <style>
      .cls-1 {
        fill: none;
      }

      .cls-2 {
        clip-path: url(#clippath-1);
      }

      .cls-3 {
        clip-path: url(#clippath-3);
      }

      .cls-4 {
        clip-path: url(#clippath-4);
      }

      .cls-5 {
        clip-path: url(#clippath-2);
      }

      .cls-6 {
        fill: #4ab94c;
      }

      .cls-7 {
        clip-path: url(#clippath);
      }
    </style>
    <clipPath id="clippath">
      <rect class="cls-1" x="50.46" y=".71" width="577.91" height="769.95"/>
    </clipPath>
    <clipPath id="clippath-1">
      <path class="cls-1" d="M209.57,18.86C241.68,7.9,278.41.71,314.35.71s70.54,6.16,102.41,17.11c.68.34,1.36.34,2.04.69,119.71,43.82,207.88,159.54,209.57,294.96v469.36H0v-469.02C1.7,177.37,88.51,61.65,209.57,18.86Z"/>
    </clipPath>
    <clipPath id="clippath-2">
      <rect class="cls-1" x="50.2" width="578.67" height="770.67"/>
    </clipPath>
    <clipPath id="clippath-3">
      <rect class="cls-1" x="50.46" y=".71" width="577.91" height="769.95"/>
    </clipPath>
    <clipPath id="clippath-4">
      <path class="cls-1" d="M209.57,18.86C241.68,7.9,278.41.71,314.35.71s70.54,6.16,102.41,17.11c.68.34,1.36.34,2.04.69,119.71,43.82,207.88,159.54,209.57,294.96v469.36H0v-469.02C1.7,177.37,88.51,61.65,209.57,18.86Z"/>
    </clipPath>
  </defs>
  <g id="Layer_1-2" data-name="Layer 1">
    <g class="cls-7">
      <g class="cls-2">
        <g class="cls-5">
          <g class="cls-3">
            <g class="cls-4">
              <path class="cls-6" d="M0,.71h628.37v783.01H0V.71Z"/>
            </g>
          </g>
        </g>
      </g>
    </g>
  </g>
</svg>