<svg width="298" height="298" viewBox="0 0 298 298" fill="none" xmlns="http://www.w3.org/2000/svg">
<path d="M248.3 0H49.69C22.247 0 0 22.247 0 49.69V248.3C0 275.743 22.247 297.99 49.69 297.99H248.3C275.743 297.99 297.99 275.743 297.99 248.3V49.69C297.99 22.247 275.743 0 248.3 0Z" fill="white"/>
<path d="M211.25 116.2H149.98V133.93H211.25V116.2Z" fill="#22254E"/>
<path d="M211.33 164.32V182.05H167.71V221.34H211.28V239.06H149.98V181.26C87.66 174.6 75.68 86.26 133.98 63.93C149.45 55.85 193.9 60.24 211.07 59.19V76.91H152.07C101.77 82.91 100.07 155.5 149.99 163.76V142.76H167.71V164.06H193.63L193.87 164.3L211.33 164.32Z" fill="#22254E"/>
<path d="M119.55 238.97L118.69 202.5L86.6699 185.07L103.21 174.97L135.24 192.4L136.1 228.86L119.55 238.97Z" fill="#50B04D"/>
</svg>
