<svg width="388" height="197" viewBox="0 0 388 197" fill="none" xmlns="http://www.w3.org/2000/svg">
<path d="M120.71 0H0V174.89H120.71V0Z" fill="white"/>
<path d="M106.11 64.34H55.2V79.07H106.11V64.34Z" fill="#323366"/>
<path d="M106.17 104.32V119.05H69.9V151.69H106.1V166.39H55.2V118.39C3.41 112.85 -6.54 39.48 41.92 20.9C54.77 14.19 91.7 17.83 105.97 16.96V31.69H56.9C15.1 36.69 13.71 96.99 55.17 103.85V86.39H69.9V104.09H91.43L91.63 104.29L106.17 104.32Z" fill="#323366"/>
<path d="M29.92 166.34L29.2 136.04L2.59003 121.56L16.34 113.17L42.95 127.65L43.66 157.95L29.92 166.34Z" fill="#47B84A"/>
<path d="M206.02 78.57H193.21L171.34 41.97L170.75 40.97C164.47 43.11 152.97 42.25 146.38 42.41V78.57H135.44V0.910034H198.36C198.854 7.84926 197.49 14.7948 194.407 21.0312C191.324 27.2675 186.634 32.5692 180.82 36.39L182.13 38.59L206.02 78.57ZM179.46 23.29C182.579 20.1488 184.897 16.3042 186.22 12.08H146.38V31.24C157.28 31.39 171.48 32.54 179.46 23.29Z" fill="white"/>
<path d="M241.13 1.06006C291.04 1.93006 291.03 77.7101 241.13 78.5701C191.22 77.7001 191.23 1.92006 241.13 1.06006ZM214.13 39.8201C214.32 75.8901 268 75.8801 268.19 39.8201C267.97 3.74005 214.29 3.75005 214.1 39.8201H214.13Z" fill="white"/>
<path d="M387.16 2.07996L353.41 78.5699C349.41 69.5699 335.84 38.7599 331.65 29.2599C327.39 38.9299 313.9 69.3899 309.9 78.5699C306.25 70.2999 280.43 11.77 276.15 2.07996H288.15L309.9 51.39C314.16 41.72 327.62 11.22 331.65 2.08995L353.41 51.39L375.16 2.08995L387.16 2.07996Z" fill="white"/>
<path d="M160.298 170.649C155.101 170.649 150.513 169.336 146.534 166.711C142.555 164.058 139.443 160.323 137.196 155.505C134.95 150.66 133.826 144.936 133.826 138.331C133.826 131.781 134.95 126.097 137.196 121.279C139.443 116.462 142.569 112.74 146.575 110.114C150.581 107.489 155.209 106.176 160.46 106.176C164.52 106.176 167.728 106.853 170.082 108.206C172.464 109.532 174.278 111.048 175.523 112.753C176.795 114.432 177.783 115.812 178.487 116.895H179.299V86.2009H188.88V169.35H179.623V159.768H178.487C177.783 160.905 176.781 162.34 175.482 164.072C174.183 165.777 172.329 167.306 169.92 168.66C167.511 169.986 164.304 170.649 160.298 170.649ZM161.597 162.042C165.44 162.042 168.688 161.04 171.341 159.038C173.993 157.008 176.01 154.206 177.39 150.633C178.771 147.033 179.461 142.879 179.461 138.169C179.461 133.514 178.784 129.44 177.431 125.948C176.078 122.43 174.075 119.696 171.422 117.747C168.77 115.771 165.495 114.783 161.597 114.783C157.537 114.783 154.154 115.825 151.447 117.91C148.767 119.967 146.751 122.768 145.397 126.314C144.071 129.833 143.408 133.784 143.408 138.169C143.408 142.608 144.085 146.641 145.438 150.268C146.818 153.868 148.848 156.737 151.528 158.875C154.235 160.986 157.591 162.042 161.597 162.042ZM232.931 194.035C228.303 194.035 224.324 193.439 220.995 192.248C217.666 191.085 214.891 189.542 212.672 187.62C210.479 185.725 208.734 183.695 207.434 181.53L215.067 176.171C215.933 177.308 217.03 178.607 218.356 180.068C219.682 181.557 221.496 182.843 223.796 183.925C226.124 185.035 229.169 185.59 232.931 185.59C237.966 185.59 242.121 184.372 245.396 181.936C248.671 179.5 250.308 175.684 250.308 170.487V157.82H249.496C248.792 158.956 247.791 160.364 246.492 162.042C245.22 163.693 243.379 165.168 240.97 166.467C238.588 167.74 235.367 168.376 231.307 168.376C226.273 168.376 221.753 167.185 217.747 164.803C213.768 162.421 210.615 158.956 208.287 154.409C205.986 149.862 204.836 144.34 204.836 137.844C204.836 131.457 205.959 125.894 208.206 121.158C210.452 116.394 213.579 112.713 217.584 110.114C221.59 107.489 226.219 106.176 231.47 106.176C235.53 106.176 238.751 106.853 241.133 108.206C243.542 109.532 245.382 111.048 246.654 112.753C247.953 114.432 248.955 115.812 249.659 116.895H250.633V106.988H259.89V171.136C259.89 176.496 258.672 180.853 256.236 184.21C253.827 187.593 250.579 190.07 246.492 191.639C242.432 193.236 237.912 194.035 232.931 194.035ZM232.607 159.768C236.45 159.768 239.698 158.889 242.351 157.129C245.003 155.37 247.02 152.839 248.4 149.537C249.78 146.235 250.471 142.283 250.471 137.682C250.471 133.189 249.794 129.224 248.441 125.786C247.087 122.349 245.084 119.655 242.432 117.707C239.779 115.758 236.504 114.783 232.607 114.783C228.547 114.783 225.163 115.812 222.457 117.869C219.777 119.926 217.76 122.687 216.407 126.151C215.081 129.616 214.418 133.459 214.418 137.682C214.418 142.013 215.094 145.842 216.448 149.172C217.828 152.474 219.858 155.072 222.538 156.967C225.244 158.835 228.601 159.768 232.607 159.768ZM303.576 170.649C297.567 170.649 292.384 169.323 288.026 166.67C283.695 163.991 280.352 160.256 277.998 155.465C275.67 150.647 274.506 145.044 274.506 138.656C274.506 132.269 275.67 126.639 277.998 121.767C280.352 116.868 283.627 113.051 287.823 110.317C292.045 107.557 296.971 106.176 302.601 106.176C305.849 106.176 309.057 106.717 312.223 107.8C315.39 108.883 318.273 110.642 320.871 113.078C323.47 115.487 325.54 118.681 327.083 122.66C328.626 126.639 329.397 131.538 329.397 137.357V141.417H281.327V133.135H319.653C319.653 129.616 318.95 126.476 317.542 123.715C316.162 120.955 314.186 118.776 311.614 117.179C309.07 115.582 306.066 114.783 302.601 114.783C298.785 114.783 295.483 115.731 292.695 117.625C289.934 119.493 287.809 121.929 286.321 124.933C284.832 127.938 284.088 131.159 284.088 134.596V140.118C284.088 144.827 284.9 148.82 286.524 152.095C288.175 155.343 290.462 157.82 293.385 159.525C296.308 161.203 299.705 162.042 303.576 162.042C306.093 162.042 308.366 161.69 310.396 160.986C312.454 160.256 314.226 159.173 315.715 157.738C317.204 156.277 318.354 154.463 319.166 152.298L328.423 154.896C327.448 158.036 325.811 160.797 323.51 163.179C321.21 165.534 318.368 167.374 314.984 168.7C311.601 170 307.798 170.649 303.576 170.649Z" fill="white"/>
</svg>
