<svg width="385" height="196" viewBox="0 0 385 196" fill="none" xmlns="http://www.w3.org/2000/svg">
<path d="M103.52 63.4299H52.6101V78.1599H103.52V63.4299Z" fill="white"/>
<path d="M103.58 103.41V118.14H67.3601V150.78H103.57V165.51H52.6101V117.51C0.820126 111.97 -9.12988 38.5999 39.3201 20.0199C52.1801 13.3099 89.1101 16.9499 103.37 16.0799V30.7999H54.3601C12.5701 35.7999 11.1801 96.0999 52.6401 102.96V85.5099H67.3601V103.21H88.9001L89.1001 103.41H103.58Z" fill="white"/>
<path d="M27.32 165.43L26.61 135.13L0 120.65L13.75 112.26L40.36 126.74L41.07 157.04L27.32 165.43Z" fill="#47B84A"/>
<path d="M203.43 77.66H190.61L168.75 41.06L168.15 40.06C161.88 42.2 150.38 41.34 143.78 41.5V77.66H132.84V0H195.76C196.254 6.93664 194.89 13.8795 191.808 20.1138C188.727 26.3482 184.04 31.6488 178.23 35.47L179.54 37.67L203.43 77.66ZM176.87 22.38C179.989 19.2388 182.307 15.3942 183.63 11.17H143.78V30.33C154.69 30.46 168.89 31.63 176.87 22.38Z" fill="#1D2150"/>
<path d="M238.54 0.149902C288.45 1.0199 288.44 76.7999 238.54 77.6599C188.63 76.7899 188.64 1.0099 238.54 0.149902ZM211.54 38.9099C211.73 74.9799 265.41 74.9699 265.59 38.9099C265.36 2.8299 211.69 2.8399 211.51 38.8999L211.54 38.9099Z" fill="#1D2150"/>
<path d="M384.57 1.16992L350.82 77.6599L329.06 28.3499C324.79 38.0199 311.34 68.5199 307.3 77.6599C303.65 69.3899 277.83 10.8599 273.55 1.16992H285.55L307.3 50.4699C311.56 40.7999 325.02 10.2999 329.05 1.16992L350.8 50.4699L372.55 1.16992H384.57Z" fill="#1D2150"/>
<path d="M157.708 169.739C152.511 169.739 147.923 168.426 143.944 165.801C139.966 163.148 136.853 159.413 134.606 154.595C132.36 149.75 131.237 144.026 131.237 137.421C131.237 130.871 132.36 125.187 134.606 120.369C136.853 115.551 139.979 111.83 143.985 109.204C147.991 106.579 152.619 105.266 157.87 105.266C161.93 105.266 165.138 105.943 167.492 107.296C169.874 108.622 171.688 110.138 172.933 111.843C174.205 113.521 175.193 114.902 175.897 115.985H176.709V85.2908H186.29V168.44H177.034V158.858H175.897C175.193 159.995 174.192 161.43 172.892 163.162C171.593 164.867 169.739 166.396 167.33 167.75C164.921 169.076 161.714 169.739 157.708 169.739ZM159.007 161.132C162.851 161.132 166.099 160.13 168.751 158.128C171.404 156.097 173.42 153.296 174.801 149.723C176.181 146.123 176.871 141.969 176.871 137.259C176.871 132.604 176.194 128.53 174.841 125.038C173.488 121.52 171.485 118.786 168.832 116.837C166.18 114.861 162.905 113.873 159.007 113.873C154.947 113.873 151.564 114.915 148.857 117C146.177 119.057 144.161 121.858 142.808 125.404C141.481 128.922 140.818 132.874 140.818 137.259C140.818 141.698 141.495 145.731 142.848 149.358C144.229 152.958 146.259 155.827 148.938 157.965C151.645 160.076 155.001 161.132 159.007 161.132ZM230.342 193.125C225.713 193.125 221.734 192.529 218.405 191.338C215.076 190.175 212.302 188.632 210.082 186.71C207.89 184.815 206.144 182.785 204.845 180.62L212.477 175.261C213.344 176.398 214.44 177.697 215.766 179.158C217.092 180.647 218.906 181.933 221.206 183.015C223.534 184.125 226.579 184.68 230.342 184.68C235.376 184.68 239.531 183.462 242.806 181.026C246.081 178.59 247.718 174.774 247.718 169.577V156.91H246.906C246.203 158.046 245.201 159.454 243.902 161.132C242.63 162.783 240.789 164.258 238.38 165.557C235.998 166.829 232.778 167.466 228.718 167.466C223.683 167.466 219.163 166.275 215.157 163.893C211.178 161.511 208.025 158.046 205.697 153.499C203.397 148.952 202.246 143.43 202.246 136.934C202.246 130.546 203.369 124.984 205.616 120.248C207.863 115.484 210.989 111.803 214.995 109.204C219.001 106.579 223.629 105.266 228.88 105.266C232.94 105.266 236.161 105.943 238.543 107.296C240.952 108.622 242.792 110.138 244.064 111.843C245.364 113.521 246.365 114.902 247.069 115.985H248.043V106.078H257.3V170.226C257.3 175.586 256.082 179.943 253.646 183.3C251.237 186.683 247.989 189.16 243.902 190.729C239.842 192.326 235.322 193.125 230.342 193.125ZM230.017 158.858C233.86 158.858 237.108 157.979 239.761 156.219C242.413 154.46 244.43 151.929 245.81 148.627C247.191 145.325 247.881 141.373 247.881 136.772C247.881 132.279 247.204 128.313 245.851 124.876C244.497 121.439 242.494 118.745 239.842 116.797C237.189 114.848 233.914 113.873 230.017 113.873C225.957 113.873 222.573 114.902 219.867 116.959C217.187 119.016 215.171 121.777 213.817 125.241C212.491 128.706 211.828 132.549 211.828 136.772C211.828 141.103 212.505 144.932 213.858 148.262C215.238 151.564 217.268 154.162 219.948 156.057C222.655 157.925 226.011 158.858 230.017 158.858ZM300.986 169.739C294.977 169.739 289.794 168.413 285.436 165.76C281.105 163.081 277.762 159.346 275.408 154.555C273.08 149.737 271.916 144.134 271.916 137.746C271.916 131.358 273.08 125.729 275.408 120.857C277.762 115.957 281.038 112.141 285.233 109.407C289.455 106.647 294.381 105.266 300.011 105.266C303.259 105.266 306.467 105.807 309.634 106.89C312.8 107.973 315.683 109.732 318.281 112.168C320.88 114.577 322.95 117.771 324.493 121.75C326.036 125.729 326.807 130.628 326.807 136.447V140.507H278.737V132.225H317.063C317.063 128.706 316.36 125.566 314.952 122.805C313.572 120.045 311.596 117.866 309.025 116.269C306.48 114.672 303.476 113.873 300.011 113.873C296.195 113.873 292.893 114.821 290.105 116.715C287.344 118.583 285.219 121.019 283.731 124.023C282.242 127.028 281.498 130.249 281.498 133.686V139.208C281.498 143.917 282.31 147.91 283.934 151.185C285.585 154.433 287.872 156.91 290.795 158.615C293.718 160.293 297.115 161.132 300.986 161.132C303.503 161.132 305.777 160.78 307.807 160.076C309.864 159.346 311.637 158.263 313.125 156.828C314.614 155.367 315.764 153.553 316.576 151.388L325.833 153.986C324.859 157.126 323.221 159.887 320.92 162.269C318.62 164.624 315.778 166.464 312.394 167.79C309.011 169.09 305.208 169.739 300.986 169.739Z" fill="#1D2150"/>
</svg>
