<svg width="388" height="197" viewBox="0 0 388 197" fill="none" xmlns="http://www.w3.org/2000/svg">
<path d="M120.71 0H0V174.89H120.71V0Z" fill="#323366"/>
<path d="M106.11 64.3401H55.2V79.0701H106.11V64.3401Z" fill="white"/>
<path d="M106.17 104.32V119.05H69.95V151.69H106.16V166.42H55.2V118.42C3.40997 112.88 -6.54004 39.51 41.91 20.93C54.77 14.22 91.7 17.86 105.96 16.99V31.71H56.95C15.16 36.71 13.77 97.01 55.23 103.87V86.42H69.95V104.12H91.49L91.69 104.32H106.17Z" fill="white"/>
<path d="M29.9099 166.34L29.1998 136.04L2.58984 121.56L16.3398 113.17L42.9498 127.65L43.6598 157.95L29.9099 166.34Z" fill="#47B84A"/>
<path d="M206.02 78.5702H193.2L171.34 41.9702L170.74 40.9702C164.47 43.1102 152.97 42.2502 146.37 42.4102V78.5702H135.43V0.910156H198.35C198.843 7.8468 197.479 14.7896 194.398 21.024C191.317 27.2583 186.63 32.5589 180.82 36.3802L182.13 38.5802L206.02 78.5702ZM179.46 23.2901C182.579 20.1489 184.897 16.3044 186.22 12.0802H146.37V31.2401C157.28 31.3701 171.48 32.5401 179.46 23.2901Z" fill="#1D2150"/>
<path d="M241.13 1.06006C291.04 1.93006 291.03 77.7101 241.13 78.5701C191.22 77.7001 191.23 1.92006 241.13 1.06006ZM214.13 39.8201C214.32 75.8901 268 75.8801 268.18 39.8201C267.95 3.74005 214.28 3.75006 214.1 39.8101L214.13 39.8201Z" fill="#1D2150"/>
<path d="M387.16 2.08008L353.41 78.5701L331.65 29.2601C327.38 38.9301 313.93 69.4301 309.89 78.5701C306.24 70.3001 280.42 11.7701 276.14 2.08008H288.14L309.89 51.3801C314.15 41.7101 327.61 11.2101 331.64 2.08008L353.39 51.3801L375.14 2.08008H387.16Z" fill="#1D2150"/>
<path d="M160.298 170.649C155.101 170.649 150.513 169.337 146.534 166.711C142.555 164.059 139.443 160.323 137.196 155.505C134.95 150.66 133.826 144.936 133.826 138.332C133.826 131.781 134.95 126.097 137.196 121.28C139.443 116.462 142.569 112.74 146.575 110.114C150.581 107.489 155.209 106.176 160.46 106.176C164.52 106.176 167.728 106.853 170.082 108.206C172.464 109.533 174.278 111.048 175.523 112.753C176.795 114.432 177.783 115.812 178.487 116.895H179.299V86.201H188.88V169.35H179.623V159.768H178.487C177.783 160.905 176.781 162.34 175.482 164.072C174.183 165.777 172.329 167.307 169.92 168.66C167.511 169.986 164.304 170.649 160.298 170.649ZM161.597 162.042C165.44 162.042 168.688 161.041 171.341 159.038C173.993 157.008 176.01 154.206 177.39 150.633C178.771 147.034 179.461 142.879 179.461 138.169C179.461 133.514 178.784 129.44 177.431 125.949C176.078 122.43 174.075 119.696 171.422 117.747C168.77 115.771 165.495 114.784 161.597 114.784C157.537 114.784 154.154 115.826 151.447 117.91C148.767 119.967 146.751 122.768 145.397 126.314C144.071 129.833 143.408 133.784 143.408 138.169C143.408 142.608 144.085 146.641 145.438 150.268C146.818 153.868 148.848 156.737 151.528 158.875C154.235 160.986 157.591 162.042 161.597 162.042ZM232.931 194.035C228.303 194.035 224.324 193.44 220.995 192.249C217.666 191.085 214.891 189.542 212.672 187.62C210.479 185.725 208.734 183.695 207.434 181.53L215.067 176.171C215.933 177.308 217.03 178.607 218.356 180.069C219.682 181.557 221.496 182.843 223.796 183.926C226.124 185.035 229.169 185.59 232.931 185.59C237.966 185.59 242.121 184.372 245.396 181.936C248.671 179.5 250.308 175.684 250.308 170.487V157.82H249.496C248.792 158.956 247.791 160.364 246.492 162.042C245.22 163.693 243.379 165.168 240.97 166.467C238.588 167.74 235.367 168.376 231.307 168.376C226.273 168.376 221.753 167.185 217.747 164.803C213.768 162.421 210.615 158.956 208.287 154.409C205.986 149.862 204.836 144.34 204.836 137.844C204.836 131.457 205.959 125.894 208.206 121.158C210.452 116.394 213.579 112.713 217.584 110.114C221.59 107.489 226.219 106.176 231.47 106.176C235.53 106.176 238.751 106.853 241.133 108.206C243.542 109.533 245.382 111.048 246.654 112.753C247.953 114.432 248.955 115.812 249.659 116.895H250.633V106.988H259.89V171.137C259.89 176.496 258.672 180.853 256.236 184.21C253.827 187.593 250.579 190.07 246.492 191.64C242.432 193.237 237.912 194.035 232.931 194.035ZM232.607 159.768C236.45 159.768 239.698 158.889 242.351 157.129C245.003 155.37 247.02 152.839 248.4 149.537C249.78 146.235 250.471 142.283 250.471 137.682C250.471 133.189 249.794 129.224 248.441 125.786C247.087 122.349 245.084 119.656 242.432 117.707C239.779 115.758 236.504 114.784 232.607 114.784C228.547 114.784 225.163 115.812 222.457 117.869C219.777 119.926 217.76 122.687 216.407 126.152C215.081 129.616 214.418 133.46 214.418 137.682C214.418 142.013 215.094 145.843 216.448 149.172C217.828 152.474 219.858 155.072 222.538 156.967C225.244 158.835 228.601 159.768 232.607 159.768ZM303.576 170.649C297.567 170.649 292.384 169.323 288.026 166.67C283.695 163.991 280.352 160.256 277.998 155.465C275.67 150.647 274.506 145.044 274.506 138.656C274.506 132.269 275.67 126.639 277.998 121.767C280.352 116.868 283.627 113.051 287.823 110.317C292.045 107.557 296.971 106.176 302.601 106.176C305.849 106.176 309.057 106.718 312.223 107.8C315.39 108.883 318.273 110.642 320.871 113.078C323.47 115.487 325.54 118.681 327.083 122.66C328.626 126.639 329.397 131.538 329.397 137.357V141.417H281.327V133.135H319.653C319.653 129.616 318.95 126.476 317.542 123.716C316.162 120.955 314.186 118.776 311.614 117.179C309.07 115.582 306.066 114.784 302.601 114.784C298.785 114.784 295.483 115.731 292.695 117.626C289.934 119.493 287.809 121.929 286.321 124.934C284.832 127.938 284.088 131.159 284.088 134.596V140.118C284.088 144.828 284.9 148.82 286.524 152.095C288.175 155.343 290.462 157.82 293.385 159.525C296.308 161.203 299.705 162.042 303.576 162.042C306.093 162.042 308.366 161.69 310.396 160.986C312.454 160.256 314.226 159.173 315.715 157.738C317.204 156.277 318.354 154.463 319.166 152.298L328.423 154.896C327.448 158.036 325.811 160.797 323.51 163.179C321.21 165.534 318.368 167.374 314.984 168.7C311.601 170 307.798 170.649 303.576 170.649Z" fill="#1D2150"/>
</svg>
